<svg width="104" height="104" viewBox="0 0 104 104" fill="none" xmlns="http://www.w3.org/2000/svg">
<path d="M1 2C1.55228 2 2 1.55228 2 1C2 0.447715 1.55228 0 1 0C0.447715 0 0 0.447715 0 1C0 1.55228 0.447715 2 1 2Z" fill="white"/>
<path d="M35 2C35.5523 2 36 1.55228 36 1C36 0.447715 35.5523 0 35 0C34.4477 0 34 0.447715 34 1C34 1.55228 34.4477 2 35 2Z" fill="white"/>
<path d="M69 2C69.5523 2 70 1.55228 70 1C70 0.447715 69.5523 0 69 0C68.4477 0 68 0.447715 68 1C68 1.55228 68.4477 2 69 2Z" fill="white"/>
<path d="M103 2C103.552 2 104 1.55228 104 1C104 0.447715 103.552 0 103 0C102.448 0 102 0.447715 102 1C102 1.55228 102.448 2 103 2Z" fill="white"/>
<path d="M1 36C1.55228 36 2 35.5523 2 35C2 34.4477 1.55228 34 1 34C0.447715 34 0 34.4477 0 35C0 35.5523 0.447715 36 1 36Z" fill="white"/>
<path d="M35 36C35.5523 36 36 35.5523 36 35C36 34.4477 35.5523 34 35 34C34.4477 34 34 34.4477 34 35C34 35.5523 34.4477 36 35 36Z" fill="white"/>
<path d="M69 36C69.5523 36 70 35.5523 70 35C70 34.4477 69.5523 34 69 34C68.4477 34 68 34.4477 68 35C68 35.5523 68.4477 36 69 36Z" fill="white"/>
<path d="M103 36C103.552 36 104 35.5523 104 35C104 34.4477 103.552 34 103 34C102.448 34 102 34.4477 102 35C102 35.5523 102.448 36 103 36Z" fill="white"/>
<path d="M1 70C1.55228 70 2 69.5523 2 69C2 68.4477 1.55228 68 1 68C0.447715 68 0 68.4477 0 69C0 69.5523 0.447715 70 1 70Z" fill="white"/>
<path d="M35 70C35.5523 70 36 69.5523 36 69C36 68.4477 35.5523 68 35 68C34.4477 68 34 68.4477 34 69C34 69.5523 34.4477 70 35 70Z" fill="white"/>
<path d="M69 70C69.5523 70 70 69.5523 70 69C70 68.4477 69.5523 68 69 68C68.4477 68 68 68.4477 68 69C68 69.5523 68.4477 70 69 70Z" fill="white"/>
<path d="M103 70C103.552 70 104 69.5523 104 69C104 68.4477 103.552 68 103 68C102.448 68 102 68.4477 102 69C102 69.5523 102.448 70 103 70Z" fill="white"/>
<path d="M1 104C1.55228 104 2 103.552 2 103C2 102.448 1.55228 102 1 102C0.447715 102 0 102.448 0 103C0 103.552 0.447715 104 1 104Z" fill="white"/>
<path d="M35 104C35.5523 104 36 103.552 36 103C36 102.448 35.5523 102 35 102C34.4477 102 34 102.448 34 103C34 103.552 34.4477 104 35 104Z" fill="white"/>
<path d="M69 104C69.5523 104 70 103.552 70 103C70 102.448 69.5523 102 69 102C68.4477 102 68 102.448 68 103C68 103.552 68.4477 104 69 104Z" fill="white"/>
<path d="M103 104C103.552 104 104 103.552 104 103C104 102.448 103.552 102 103 102C102.448 102 102 102.448 102 103C102 103.552 102.448 104 103 104Z" fill="white"/>
</svg>
