<svg xmlns="http://www.w3.org/2000/svg" viewBox="0 0 21.59 19.27">
  <defs/>
  <g id="uuid-a749a390-70b7-4799-a21f-710c7262efe2">
    <path fill="#fff" d="M1.89 12.82c-.24 0-.47-.14-.57-.37-.14-.31 0-.68.32-.83l2.74-1.22c.31-.14.68 0 .83.32.14.31 0 .68-.32.83l-2.74 1.22a.56.56 0 0 1-.25.05ZM.63 16.12c-.24 0-.47-.14-.57-.37a.63.63 0 0 1 .32-.83l2.74-1.22c.31-.14.68 0 .83.32.14.32 0 .68-.32.83L.89 16.07a.56.56 0 0 1-.25.05ZM18.22 5.55c-.24 0-.47-.14-.57-.37a.63.63 0 0 1 .32-.83l2.74-1.22c.31-.14.68 0 .83.32.14.32 0 .68-.32.83L18.48 5.5a.56.56 0 0 1-.25.05ZM16.96 8.85c-.24 0-.47-.14-.57-.37-.14-.31 0-.68.32-.83l2.74-1.22c.31-.14.68 0 .83.32.14.31 0 .68-.32.83L17.22 8.8a.56.56 0 0 1-.25.05Z" class="cls-1"/>
    <path fill="#e00" d="M10.75 19.27c-2.19 0-4.35-.76-6.12-2.22-.27-.22-.3-.61-.08-.88s.61-.3.88-.08a8.344 8.344 0 0 0 8.75 1.2c2.92-1.3 4.83-4.1 4.96-7.3.01-.34.29-.65.65-.6.34.01.61.31.6.65-.16 3.68-2.34 6.9-5.7 8.39-1.27.56-2.6.84-3.93.84ZM1.77 9.86h-.03a.639.639 0 0 1-.6-.65A9.599 9.599 0 0 1 6.85.84c3.36-1.5 7.21-.97 10.05 1.38.27.22.3.61.08.88s-.61.3-.88.08a8.344 8.344 0 0 0-8.75-1.2 8.325 8.325 0 0 0-4.96 7.28c-.01.33-.29.6-.62.6Z" class="cls-2"/>
  </g>
</svg>