<?xml version="1.0" encoding="UTF-8"?>
<svg xmlns="http://www.w3.org/2000/svg" version="1.1" viewBox="0 0 103.1 78">
  <defs>
    <style>
      .cls-1 {
        fill: #ed0000;
      }
    </style>
  </defs>
  <!-- Generator: Adobe Illustrator 28.7.1, SVG Export Plug-In . SVG Version: 1.2.0 Build 142)  -->
  <g>
    <g id="a9cc4e20-9abb-4bb2-995e-43140dd5eebf">
      <path class="cls-1" d="M86.4,38.8c.9,4.4.9,4.9.9,5.5,0,7.6-8.5,11.8-19.7,11.8-25.3,0-47.5-14.8-47.5-24.6,0-1.4.3-2.7.8-4-9.1.5-20.9,2.1-20.9,12.5,0,17,40.4,38.1,72.4,38.1s30.7-11.1,30.7-19.8-6-14.7-16.7-19.4M68.8,45c6.8,0,16.6-1.4,16.6-9.5,0-.6,0-1.2-.2-1.9l-4-17.5c-.9-3.9-1.8-5.6-8.5-9-5.3-2.7-16.7-7.1-20.1-7.1s-4.1,4.1-7.8,4.1-6.3-3-9.7-3-5.4,2.2-7,6.8c0,0-4.6,12.8-5.1,14.7,0,.3-.1.7-.1,1.1,0,5,19.7,21.4,46,21.4"/>
      <path d="M86.4,38.8c.9,4.4.9,4.9.9,5.5,0,7.6-8.5,11.8-19.7,11.8-25.3,0-47.5-14.8-47.5-24.6,0-1.4.3-2.7.8-4l2-4.9c0,.3-.1.7-.1,1.1,0,5,19.7,21.4,46,21.4s16.6-1.4,16.6-9.5c0-.6,0-1.2-.2-1.9l1.2,5.1h0Z"/>
    </g>
  </g>
</svg>